<?xml version="1.0" encoding="UTF-8"?>
<svg xmlns="http://www.w3.org/2000/svg" xmlns:xlink="http://www.w3.org/1999/xlink" width="180px" height="43px" viewBox="0 0 180 43" version="1.1">
<g id="surface1">
<path style=" stroke:none;fill-rule:nonzero;fill:rgb(0%,0%,0%);fill-opacity:1;" d="M 118.40625 13.21875 C 118.40625 14.453125 118.40625 14.464844 119.210938 14.695312 C 120.738281 15.121094 121.429688 15.703125 121.429688 16.535156 C 121.429688 17.117188 121.285156 17.371094 120.824219 17.636719 L 120.191406 17.988281 L 120.855469 18.242188 C 121.488281 18.472656 121.574219 18.472656 122.007812 18.292969 C 122.351562 18.132812 123.21875 18.085938 126.15625 18.0625 C 129.84375 18.011719 129.84375 18.027344 130.449219 18.328125 L 131.023438 18.644531 L 132.695312 18.316406 C 135.75 17.734375 139.957031 17.808594 142.402344 18.472656 C 144.132812 18.957031 144.421875 19.371094 144.59375 21.753906 L 144.765625 23.847656 L 150.875 22.421875 C 154.214844 21.644531 156.894531 20.96875 156.78125 20.917969 C 156.605469 20.847656 121.257812 12.601562 119.269531 12.167969 L 118.40625 11.972656 Z M 118.40625 13.21875 "/>
<path style=" stroke:none;fill-rule:nonzero;fill:rgb(0%,0%,0%);fill-opacity:1;" d="M 49.636719 15.300781 C 45.949219 16.003906 48.140625 18.242188 52.085938 17.808594 C 53.960938 17.589844 54.910156 16.9375 54.421875 16.199219 C 53.875 15.339844 51.625 14.925781 49.636719 15.300781 Z M 49.636719 15.300781 "/>
<path style=" stroke:none;fill-rule:nonzero;fill:rgb(0%,0%,0%);fill-opacity:1;" d="M 114.460938 15.324219 C 113.308594 15.566406 112.558594 16.199219 112.789062 16.753906 C 113.019531 17.226562 114.171875 17.734375 115.292969 17.84375 C 117.3125 18.039062 119.558594 17.394531 119.558594 16.632812 C 119.558594 15.460938 116.996094 14.804688 114.460938 15.324219 Z M 114.460938 15.324219 "/>
<path style=" stroke:none;fill-rule:nonzero;fill:rgb(0%,0%,0%);fill-opacity:1;" d="M 58.570312 16.425781 C 58.28125 16.476562 58.195312 17.625 58.195312 21.597656 L 58.195312 26.71875 L 59.636719 26.851562 C 62.402344 27.117188 66.433594 27.261719 69.140625 27.203125 C 76.460938 27.007812 77.929688 26.234375 77.929688 22.636719 C 77.929688 20.992188 77.84375 20.699219 77.296875 20.214844 C 76.199219 19.222656 74.386719 18.765625 71.503906 18.765625 C 69.402344 18.765625 67.902344 19.007812 66.460938 19.585938 L 65.398438 20.023438 L 65.597656 18.183594 L 65.769531 16.34375 L 62.34375 16.355469 C 60.46875 16.355469 58.742188 16.390625 58.570312 16.425781 Z M 69.863281 21.367188 C 70.523438 21.644531 70.582031 21.742188 70.582031 22.964844 C 70.582031 23.679688 70.4375 24.476562 70.265625 24.730469 L 69.976562 25.191406 L 65.539062 25.121094 L 65.453125 23.242188 C 65.425781 22.214844 65.453125 21.304688 65.511719 21.222656 C 65.628906 21.113281 66.261719 21.0625 67.414062 21.0625 C 68.882812 21.0625 69.285156 21.113281 69.863281 21.367188 Z M 69.863281 21.367188 "/>
<path style=" stroke:none;fill-rule:nonzero;fill:rgb(0%,0%,0%);fill-opacity:1;" d="M 101.898438 16.425781 C 101.78125 16.464844 101.695312 18.859375 101.695312 21.753906 L 101.695312 26.996094 L 108.898438 26.996094 L 108.898438 16.34375 L 105.5 16.34375 C 103.625 16.34375 101.984375 16.378906 101.898438 16.425781 Z M 101.898438 16.425781 "/>
<path style=" stroke:none;fill-rule:nonzero;fill:rgb(0%,0%,0%);fill-opacity:1;" d="M 23.625 21.972656 L 23.625 26.996094 L 31.113281 26.996094 L 31.113281 24.5625 C 31.113281 22.46875 31.171875 22.140625 31.515625 22.261719 C 31.746094 22.347656 33.21875 23.4375 34.773438 24.695312 L 37.597656 26.996094 L 41.714844 26.996094 C 43.960938 26.996094 45.808594 26.972656 45.808594 26.933594 C 45.808594 26.789062 39.640625 22.347656 39.035156 22.058594 L 38.402344 21.742188 L 39.351562 21.222656 C 40.246094 20.738281 45.519531 17.117188 45.519531 16.996094 C 45.519531 16.972656 43.703125 16.960938 41.457031 16.972656 L 37.421875 17.007812 L 34.773438 18.96875 C 30.796875 21.910156 31.144531 21.886719 31.144531 19.210938 L 31.113281 16.949219 L 23.625 16.949219 Z M 23.625 21.972656 "/>
<path style=" stroke:none;fill-rule:nonzero;fill:rgb(0%,0%,0%);fill-opacity:1;" d="M 135.980469 18.777344 C 134.078125 18.898438 132.722656 19.164062 131.253906 19.734375 L 129.957031 20.230469 L 129.640625 19.707031 C 129.46875 19.417969 129.265625 19.113281 129.210938 19.03125 C 129.121094 18.933594 128.257812 18.886719 126.183594 18.886719 L 123.304688 18.886719 L 123.304688 26.996094 L 130.503906 26.996094 L 130.5625 24.175781 L 130.648438 21.367188 L 132.261719 21.257812 C 133.15625 21.199219 134.222656 21.183594 134.652344 21.234375 L 135.402344 21.304688 L 135.402344 26.996094 L 142.894531 26.996094 L 142.894531 24.417969 C 142.863281 21.027344 142.578125 19.683594 141.710938 19.296875 C 141.367188 19.140625 140.847656 18.980469 140.558594 18.945312 C 139.351562 18.777344 137.191406 18.703125 135.980469 18.777344 Z M 135.980469 18.777344 "/>
<path style=" stroke:none;fill-rule:nonzero;fill:rgb(0%,0%,0%);fill-opacity:1;" d="M 84.179688 18.96875 L 81.5 19.152344 L 81.675781 19.839844 C 81.761719 20.214844 81.933594 20.664062 81.992188 20.847656 L 82.136719 21.171875 L 86.601562 21.101562 L 91.039062 21.027344 L 91.039062 22.226562 L 87.753906 22.371094 C 84.007812 22.542969 82.277344 22.796875 81.15625 23.363281 C 80.175781 23.847656 79.972656 24.1875 80.175781 25.082031 C 80.433594 26.28125 82.367188 27.070312 85.363281 27.203125 C 87.4375 27.285156 89.480469 26.996094 90.777344 26.4375 L 91.757812 26.015625 L 92.074219 26.476562 L 92.390625 26.933594 L 95.417969 26.972656 L 98.441406 27.007812 L 98.324219 25.035156 C 98.125 20.6875 98.09375 20.554688 97.402344 20.011719 C 97.058594 19.707031 96.28125 19.34375 95.589844 19.164062 C 94.464844 18.835938 94.207031 18.824219 90.632812 18.800781 C 88.300781 18.789062 85.824219 18.847656 84.179688 18.96875 Z M 90.980469 24.417969 L 90.894531 25.121094 L 89.367188 25.15625 C 87.550781 25.203125 87.003906 25.058594 87.003906 24.515625 C 87.003906 23.933594 87.234375 23.871094 90.546875 23.75 C 91.007812 23.726562 91.066406 23.8125 90.980469 24.417969 Z M 90.980469 24.417969 "/>
<path style=" stroke:none;fill-rule:nonzero;fill:rgb(0%,0%,0%);fill-opacity:1;" d="M 47.535156 22.941406 L 47.535156 26.996094 L 54.738281 26.996094 L 54.738281 18.886719 L 47.535156 18.886719 Z M 47.535156 22.941406 "/>
<path style=" stroke:none;fill-rule:nonzero;fill:rgb(0%,0%,0%);fill-opacity:1;" d="M 112.644531 22.941406 L 112.644531 26.996094 L 119.847656 26.996094 L 119.847656 18.886719 L 112.644531 18.886719 Z M 112.644531 22.941406 "/>
<path style=" stroke:none;fill-rule:nonzero;fill:rgb(0%,0%,0%);fill-opacity:1;" d="M 132.523438 24.332031 C 132.523438 25.589844 132.636719 26.632812 132.753906 26.632812 C 133.53125 26.632812 133.675781 26.269531 133.675781 24.1875 C 133.675781 22.117188 133.644531 22.03125 133.097656 22.03125 C 132.550781 22.03125 132.523438 22.117188 132.523438 24.332031 Z M 132.523438 24.332031 "/>
<path style=" stroke:none;fill-rule:nonzero;fill:rgb(0%,0%,0%);fill-opacity:1;" d="M 120.882812 27.660156 C 120.566406 27.757812 119.875 27.84375 119.355469 27.84375 L 118.40625 27.84375 L 118.40625 28.871094 C 118.40625 29.441406 118.492188 29.902344 118.578125 29.902344 C 118.695312 29.902344 120.710938 29.453125 123.074219 28.898438 L 127.335938 27.902344 L 124.917969 27.867188 C 123.21875 27.84375 122.382812 27.78125 122.152344 27.660156 C 121.71875 27.445312 121.574219 27.445312 120.882812 27.660156 Z M 120.882812 27.660156 "/>
<path style=" stroke:none;fill-rule:nonzero;fill:rgb(0%,0%,0%);fill-opacity:1;" d="M 73.550781 28.691406 C 71.9375 28.96875 72.457031 30.507812 74.15625 30.507812 C 75.480469 30.507812 76.199219 30.082031 76.085938 29.34375 C 76.027344 28.8125 74.761719 28.496094 73.550781 28.691406 Z M 74.933594 28.933594 C 75.941406 29.164062 75.480469 30.265625 74.386719 30.265625 C 73.289062 30.265625 72.773438 29.585938 73.464844 29.042969 C 73.808594 28.777344 74.125 28.75 74.933594 28.933594 Z M 74.933594 28.933594 "/>
<path style=" stroke:none;fill-rule:nonzero;fill:rgb(0%,0%,0%);fill-opacity:1;" d="M 62.226562 29.597656 C 62.226562 30.121094 62.34375 30.507812 62.515625 30.507812 C 62.6875 30.507812 62.804688 30.3125 62.804688 30.082031 C 62.804688 29.695312 62.863281 29.660156 63.667969 29.660156 C 64.15625 29.660156 64.53125 29.597656 64.53125 29.539062 C 64.53125 29.464844 64.128906 29.417969 63.640625 29.417969 C 62.890625 29.417969 62.773438 29.382812 62.863281 29.140625 C 62.917969 28.945312 63.207031 28.847656 63.957031 28.800781 C 64.90625 28.726562 64.878906 28.726562 63.609375 28.703125 L 62.226562 28.691406 Z M 62.226562 29.597656 "/>
<path style=" stroke:none;fill-rule:nonzero;fill:rgb(0%,0%,0%);fill-opacity:1;" d="M 67.125 29.527344 C 67.125 29.984375 67.269531 30.410156 67.414062 30.445312 C 67.585938 30.496094 67.703125 30.363281 67.703125 30.15625 C 67.703125 29.648438 68.652344 29.636719 69.140625 30.144531 C 69.34375 30.335938 69.691406 30.507812 69.921875 30.507812 C 70.265625 30.507812 70.207031 30.421875 69.71875 30.09375 C 69.171875 29.71875 69.171875 29.671875 69.574219 29.5625 C 69.890625 29.488281 70.007812 29.332031 69.949219 29.101562 C 69.863281 28.777344 69.777344 28.75 68.507812 28.714844 L 67.125 28.679688 Z M 69.085938 28.921875 C 69.691406 29.078125 69.371094 29.476562 68.625 29.515625 C 67.933594 29.5625 67.527344 29.296875 67.816406 28.992188 C 67.988281 28.789062 68.507812 28.761719 69.085938 28.921875 Z M 69.085938 28.921875 "/>
<path style=" stroke:none;fill-rule:nonzero;fill:rgb(0%,0%,0%);fill-opacity:1;" d="M 78.648438 29.527344 C 78.648438 30 78.792969 30.410156 78.9375 30.445312 C 79.109375 30.496094 79.226562 30.242188 79.226562 29.757812 L 79.226562 28.992188 L 80.261719 29.742188 C 80.808594 30.167969 81.386719 30.507812 81.558594 30.507812 C 81.703125 30.507812 81.816406 30.09375 81.816406 29.597656 C 81.816406 28.570312 81.328125 28.351562 81.183594 29.320312 L 81.097656 29.949219 L 80.292969 29.320312 C 79.140625 28.425781 78.648438 28.484375 78.648438 29.527344 Z M 78.648438 29.527344 "/>
<path style=" stroke:none;fill-rule:nonzero;fill:rgb(0%,0%,0%);fill-opacity:1;" d="M 84.785156 28.777344 C 85.535156 28.824219 85.5625 28.847656 85.5625 29.671875 C 85.5625 30.144531 85.679688 30.507812 85.851562 30.507812 C 86.023438 30.507812 86.140625 30.144531 86.140625 29.671875 C 86.140625 28.847656 86.167969 28.824219 86.945312 28.777344 C 87.378906 28.75 86.886719 28.726562 85.851562 28.726562 C 84.8125 28.726562 84.324219 28.75 84.785156 28.777344 Z M 84.785156 28.777344 "/>
<path style=" stroke:none;fill-rule:nonzero;fill:rgb(0%,0%,0%);fill-opacity:1;" d="M 89.882812 29.597656 L 89.882812 30.507812 L 91.179688 30.507812 C 91.902344 30.507812 92.476562 30.445312 92.476562 30.386719 C 92.476562 30.3125 92.015625 30.265625 91.46875 30.265625 C 90.578125 30.265625 90.460938 30.226562 90.460938 29.960938 C 90.460938 29.707031 90.605469 29.660156 91.324219 29.660156 C 91.816406 29.660156 92.191406 29.597656 92.191406 29.539062 C 92.191406 29.464844 91.816406 29.417969 91.324219 29.417969 C 90.605469 29.417969 90.460938 29.367188 90.460938 29.125 C 90.460938 28.871094 90.605469 28.824219 91.554688 28.777344 C 92.535156 28.738281 92.507812 28.726562 91.269531 28.714844 L 89.882812 28.691406 Z M 89.882812 29.597656 "/>
<path style=" stroke:none;fill-rule:nonzero;fill:rgb(0%,0%,0%);fill-opacity:1;" d="M 95.070312 29.585938 C 95.070312 30.121094 95.1875 30.507812 95.359375 30.507812 C 95.53125 30.507812 95.648438 30.191406 95.648438 29.804688 L 95.648438 29.113281 L 96.597656 29.804688 C 97.863281 30.773438 98.238281 30.726562 98.238281 29.597656 C 98.238281 28.546875 97.722656 28.363281 97.605469 29.367188 L 97.519531 30.046875 L 96.65625 29.40625 C 95.359375 28.460938 95.070312 28.496094 95.070312 29.585938 Z M 95.070312 29.585938 "/>
<path style=" stroke:none;fill-rule:nonzero;fill:rgb(0%,0%,0%);fill-opacity:1;" d="M 100.890625 29.5625 L 100.976562 30.445312 L 102.101562 30.433594 C 103.484375 30.410156 104 30.15625 104 29.527344 C 104 28.945312 103.394531 28.691406 101.957031 28.691406 L 100.804688 28.691406 Z M 102.792969 29.003906 C 103.945312 29.332031 103.453125 30.265625 102.128906 30.265625 C 101.464844 30.265625 101.410156 30.226562 101.410156 29.621094 C 101.410156 28.761719 101.640625 28.667969 102.792969 29.003906 Z M 102.792969 29.003906 "/>
</g>
</svg>
